<?xml version="1.0" encoding="utf-8"?>
<!-- Generator: Adobe Illustrator 25.0.1, SVG Export Plug-In . SVG Version: 6.00 Build 0)  -->
<svg version="1.1" xmlns="http://www.w3.org/2000/svg" xmlns:xlink="http://www.w3.org/1999/xlink" x="0px" y="0px"
	 viewBox="0 0 466.36 591.21" style="enable-background:new 0 0 466.36 591.21;" xml:space="preserve">
<style type="text/css">
	.st0{fill:#00A0EB;}
	.st1{fill:#01FFF5;}
	.st2{fill:#FFFF00;}
	.st3{fill:#FA1E5A;}
	.st4{fill:#FFFFFF;}
	.st5{fill:url(#SVGID_1_);}
	.st6{fill:url(#SVGID_2_);}
	.st7{fill:#060606;}
	.st8{fill:url(#SVGID_3_);}
	.st9{fill:url(#SVGID_4_);}
	.st10{fill:#FE992D;}
	.st11{fill:url(#SVGID_5_);}
	.st12{fill:url(#SVGID_6_);}
	.st13{fill:url(#SVGID_7_);}
	.st14{fill:url(#SVGID_8_);}
</style>
<g id="Capa_1">
</g>
<g id="Capa_2">
	<linearGradient id="SVGID_1_" gradientUnits="userSpaceOnUse" x1="157.284" y1="261.3194" x2="324.9735" y2="261.3194">
		<stop  offset="0.0341" style="stop-color:#FFFF00"/>
		<stop  offset="0.4953" style="stop-color:#FC8D2E"/>
		<stop  offset="0.842" style="stop-color:#FB3D4E"/>
		<stop  offset="1" style="stop-color:#FA1E5A"/>
	</linearGradient>
	<path class="st5" d="M170.26,275.15c-0.05,0.86,1.53,5.83,2.86,8.37c43.7,37.8,53.61-6.09,77.25-6.75
		c19.6-0.19,23.45,34.77,71.1-0.09c-3.54-8-3.97-17.08,3.52-28.92l-0.65-4.63c-55.01-22.14-63.88-23.33-118.14-13.38
		c0,0-28.19,0.96-31.17,0.78c-2.98-0.18-14.51,3.18-14.51,3.18l-3.21,2.33C169.12,242.61,174.48,262.17,170.26,275.15z"/>
</g>
</svg>
